<svg width="22" height="23" viewBox="0 0 22 23" fill="none" xmlns="http://www.w3.org/2000/svg">
<path d="M11 19.6226C6.59 19.6226 3 16.0326 3 11.6226C3 7.21256 6.59 3.62256 11 3.62256C15.41 3.62256 19 7.21256 19 11.6226C19 16.0326 15.41 19.6226 11 19.6226ZM11 1.62256C9.68678 1.62256 8.38642 1.88122 7.17317 2.38376C5.95991 2.88631 4.85752 3.62291 3.92893 4.55149C2.05357 6.42685 1 8.97039 1 11.6226C1 14.2747 2.05357 16.8183 3.92893 18.6936C4.85752 19.6222 5.95991 20.3588 7.17317 20.8614C8.38642 21.3639 9.68678 21.6226 11 21.6226C13.6522 21.6226 16.1957 20.569 18.0711 18.6936C19.9464 16.8183 21 14.2747 21 11.6226C21 10.3093 20.7413 9.00898 20.2388 7.79572C19.7362 6.58247 18.9997 5.48008 18.0711 4.55149C17.1425 3.62291 16.0401 2.88631 14.8268 2.38376C13.6136 1.88122 12.3132 1.62256 11 1.62256ZM12 6.62256H10V10.6226H6V12.6226H10V16.6226H12V12.6226H16V10.6226H12V6.62256Z" fill="white"/>
</svg>
