<svg width="21" height="23" viewBox="0 0 21 23" fill="none" xmlns="http://www.w3.org/2000/svg">
<g clip-path="url(#clip0_5711_1405)">
<path d="M9.9751 19.1082C5.5651 19.1082 1.9751 15.5182 1.9751 11.1082C1.9751 6.69815 5.5651 3.10815 9.9751 3.10815C14.3851 3.10815 17.9751 6.69815 17.9751 11.1082C17.9751 15.5182 14.3851 19.1082 9.9751 19.1082ZM9.9751 1.10815C8.66188 1.10815 7.36152 1.36681 6.14826 1.86936C4.93501 2.37191 3.83262 3.1085 2.90403 4.03709C1.02867 5.91245 -0.0249023 8.45599 -0.0249023 11.1082C-0.0249023 13.7603 1.02867 16.3039 2.90403 18.1792C3.83262 19.1078 4.93501 19.8444 6.14826 20.347C7.36152 20.8495 8.66188 21.1082 9.9751 21.1082C12.6273 21.1082 15.1708 20.0546 17.0462 18.1792C18.9215 16.3039 19.9751 13.7603 19.9751 11.1082C19.9751 9.79494 19.7164 8.49458 19.2139 7.28132C18.7113 6.06806 17.9748 4.96567 17.0462 4.03709C16.1176 3.1085 15.0152 2.37191 13.8019 1.86936C12.5887 1.36681 11.2883 1.10815 9.9751 1.10815Z" fill="white"/>
<path d="M7.92374 14.694V7.52599C7.92389 7.43631 7.94816 7.34832 7.994 7.27124C8.03985 7.19416 8.10558 7.13082 8.18431 7.08788C8.26305 7.04493 8.35188 7.02396 8.44151 7.02714C8.53113 7.03033 8.61825 7.05756 8.69374 7.10599L14.2697 10.689C14.3403 10.7342 14.3984 10.7965 14.4387 10.8701C14.4789 10.9436 14.5 11.0261 14.5 11.11C14.5 11.1938 14.4789 11.2764 14.4387 11.3499C14.3984 11.4235 14.3403 11.4858 14.2697 11.531L8.69374 15.115C8.61825 15.1634 8.53113 15.1907 8.44151 15.1938C8.35188 15.197 8.26305 15.1761 8.18431 15.1331C8.10558 15.0902 8.03985 15.0268 7.994 14.9498C7.94816 14.8727 7.92389 14.7837 7.92374 14.694Z" fill="white"/>
</g>
<defs>
<clipPath id="clip0_5711_1405">
<rect width="20.7597" height="21.7033" fill="white" transform="translate(0 0.622559)"/>
</clipPath>
</defs>
</svg>
