<svg width="21" height="20" viewBox="0 0 21 20" fill="none" xmlns="http://www.w3.org/2000/svg">
<path d="M11.1496 14.0065L7.67168 12.1097C7.21761 12.5951 6.62803 12.9327 5.97956 13.0787C5.33109 13.2246 4.65371 13.1721 4.03545 12.9281C3.4172 12.684 2.88666 12.2596 2.51278 11.71C2.1389 11.1604 1.93896 10.5111 1.93896 9.8464C1.93896 9.18171 2.1389 8.53238 2.51278 7.98281C2.88666 7.43324 3.4172 7.00883 4.03545 6.76474C4.65371 6.52065 5.33109 6.46817 5.97956 6.61412C6.62803 6.76007 7.21761 7.09769 7.67168 7.58312L11.1505 5.68635C10.9533 4.90442 11.048 4.07741 11.4169 3.36034C11.7859 2.64327 12.4037 2.08538 13.1545 1.79124C13.9054 1.4971 14.7378 1.48692 15.4956 1.76259C16.2534 2.03826 16.8847 2.58087 17.2711 3.28869C17.6575 3.99652 17.7724 4.82096 17.5944 5.60748C17.4164 6.394 16.9576 7.0886 16.3041 7.56106C15.6506 8.03353 14.8472 8.25143 14.0445 8.17391C13.2418 8.09639 12.495 7.72878 11.944 7.13999L8.46518 9.03675C8.5987 9.56798 8.5987 10.124 8.46518 10.6552L11.944 12.552C12.4953 11.9635 13.2423 11.5962 14.045 11.5191C14.8477 11.442 15.651 11.6603 16.3042 12.133C16.9575 12.6058 17.4159 13.3006 17.5936 14.0872C17.7713 14.8738 17.6559 15.6981 17.2692 16.4058C16.8826 17.1134 16.2511 17.6557 15.4931 17.9311C14.7352 18.2064 13.9029 18.1959 13.1522 17.9014C12.4014 17.607 11.7839 17.0489 11.4152 16.3317C11.0466 15.6145 10.9521 14.7875 11.1496 14.0056V14.0065ZM5.25227 11.5026C5.69162 11.5026 6.11297 11.328 6.42364 11.0174C6.7343 10.7067 6.90883 10.2853 6.90883 9.84599C6.90883 9.40664 6.7343 8.98528 6.42364 8.67462C6.11297 8.36395 5.69162 8.18942 5.25227 8.18942C4.81292 8.18942 4.39156 8.36395 4.0809 8.67462C3.77023 8.98528 3.5957 9.40664 3.5957 9.84599C3.5957 10.2853 3.77023 10.7067 4.0809 11.0174C4.39156 11.328 4.81292 11.5026 5.25227 11.5026ZM14.3634 6.53286C14.8027 6.53286 15.2241 6.35833 15.5347 6.04766C15.8454 5.73699 16.0199 5.31564 16.0199 4.87629C16.0199 4.43694 15.8454 4.01559 15.5347 3.70492C15.2241 3.39426 14.8027 3.21972 14.3634 3.21972C13.924 3.21972 13.5027 3.39426 13.192 3.70492C12.8813 4.01559 12.7068 4.43694 12.7068 4.87629C12.7068 5.31564 12.8813 5.73699 13.192 6.04766C13.5027 6.35833 13.924 6.53286 14.3634 6.53286ZM14.3634 16.4722C14.8027 16.4722 15.2241 16.2977 15.5347 15.9871C15.8454 15.6764 16.0199 15.255 16.0199 14.8157C16.0199 14.3763 15.8454 13.955 15.5347 13.6443C15.2241 13.3336 14.8027 13.1591 14.3634 13.1591C13.924 13.1591 13.5027 13.3336 13.192 13.6443C12.8813 13.955 12.7068 14.3763 12.7068 14.8157C12.7068 15.255 12.8813 15.6764 13.192 15.9871C13.5027 16.2977 13.924 16.4722 14.3634 16.4722Z" fill="white"/>
</svg>
